<svg width="19" height="20" viewBox="0 0 19 20" fill="none" xmlns="http://www.w3.org/2000/svg">
<mask id="mask0_1884_6857" style="mask-type:luminance" maskUnits="userSpaceOnUse" x="2" y="3" width="15" height="15">
<path d="M13.0566 3.21387H5.77491C3.86995 3.21387 2.32568 4.77873 2.32568 6.70908V14.0879C2.32568 16.0182 3.86995 17.5831 5.77491 17.5831H13.0566C14.9616 17.5831 16.5058 16.0182 16.5058 14.0879V6.70908C16.5058 4.77873 14.9616 3.21387 13.0566 3.21387Z" fill="white"/>
</mask>
<g mask="url(#mask0_1884_6857)">
<path d="M11.0846 10.0698H6.89532V8.38999H11.0846C11.3294 8.38999 11.4995 8.43321 11.5849 8.50869C11.6703 8.58417 11.7232 8.72416 11.7232 8.92867V9.53186C11.7232 9.74731 11.6703 9.88729 11.5849 9.96277C11.4995 10.0382 11.3294 10.0705 11.0846 10.0705V10.0698ZM11.372 6.80624H5.11865V13.9902H6.89532V11.653H10.1695L11.7232 13.9902H13.7127L11.9997 11.642C12.6313 11.5472 12.9149 11.3511 13.1487 11.0279C13.3826 10.7046 13.4999 10.1879 13.4999 9.49832V8.95962C13.4999 8.55063 13.4571 8.22743 13.3826 7.9797C13.308 7.73198 13.1806 7.51652 12.9996 7.32298C12.8084 7.13977 12.5956 7.01074 12.34 6.9243C12.0845 6.84882 11.7652 6.8056 11.372 6.8056V6.80624Z" fill="white"/>
<path d="M23.5957 3.21292C23.5957 7.18087 20.4213 10.3975 16.5056 10.3975C15.7095 10.3975 14.944 10.2645 14.2296 10.0194C14.2449 9.84862 14.2516 9.6741 14.2516 9.49794V8.95925C14.2516 8.50188 14.2045 8.09871 14.1017 7.75703C13.9908 7.38857 13.8006 7.07147 13.5453 6.79847L13.5311 6.78331L13.5162 6.76897C13.2441 6.50827 12.9358 6.32217 12.578 6.20113L12.5642 6.19648L12.5503 6.19236C12.2097 6.09177 11.8165 6.04322 11.3719 6.04322H10.6199V6.04386H9.98713C9.61922 5.17516 9.41553 4.21815 9.41553 3.21292C9.41553 -0.75503 12.5899 -3.97168 16.5056 -3.97168C20.4213 -3.97168 23.5957 -0.75503 23.5957 3.21292Z" fill="white"/>
</g>
<path d="M13.155 3.21387H5.64637C3.74337 3.21387 2.20068 4.76472 2.20068 6.67778V14.2261C2.20068 16.1392 3.74337 17.6901 5.64637 17.6901H13.155C15.058 17.6901 16.6007 16.1392 16.6007 14.2261V6.67778C16.6007 4.76472 15.058 3.21387 13.155 3.21387Z" stroke="white" stroke-width="0.371567"/>
</svg>
