<svg width="22" height="22" viewBox="0 0 22 22" fill="none" xmlns="http://www.w3.org/2000/svg">
<path d="M18.0837 6.94023L16.5708 16.7977C16.5499 16.9336 16.4962 17.0621 16.4145 17.1716C16.3328 17.2812 16.2256 17.3684 16.1025 17.4254C15.9795 17.4823 15.8445 17.5074 15.7097 17.4981C15.5748 17.4889 15.4443 17.4457 15.3299 17.3725L10.2636 14.1423C10.1583 14.0752 10.0694 13.9846 10.0037 13.8773C9.93807 13.7701 9.89732 13.6489 9.8846 13.5232C9.87188 13.3975 9.88753 13.2705 9.93036 13.1518C9.97319 13.0332 10.0421 12.926 10.1317 12.8386L14.3374 8.73685C14.3846 8.69165 14.3291 8.61679 14.2736 8.65069L8.17741 12.3626C7.81507 12.5843 7.38477 12.6613 6.96983 12.5787L4.76288 12.1451C3.96616 11.9883 3.8565 10.8753 4.60465 10.5603L16.4056 5.59558C16.6066 5.51047 16.8263 5.48145 17.0421 5.51153C17.2578 5.54161 17.4617 5.6297 17.6329 5.76671C17.804 5.90371 17.9361 6.08468 18.0156 6.29096C18.0951 6.49725 18.1191 6.72137 18.0851 6.94023" fill="white"/>
</svg>
