<svg width="16" height="16" viewBox="0 0 16 16" fill="none" xmlns="http://www.w3.org/2000/svg">
<g clip-path="url(#clip0_1884_6851)">
<path fill-rule="evenodd" clip-rule="evenodd" d="M14.9561 4.2175C15.0598 3.87625 14.9561 3.625 14.4592 3.625H12.8186C12.4011 3.625 12.2086 3.84188 12.1042 4.08125C12.1042 4.08125 11.2698 6.07875 10.0879 7.37625C9.70543 7.7525 9.53168 7.87188 9.32293 7.87188C9.21855 7.87188 9.06168 7.7525 9.06168 7.41063V4.2175C9.06168 3.8075 8.94668 3.625 8.59918 3.625H6.01918C5.75855 3.625 5.60168 3.815 5.60168 3.99562C5.60168 4.38375 6.19293 4.47375 6.25355 5.56625V7.94C6.25355 8.46063 6.15793 8.555 5.94918 8.555C5.39293 8.555 4.0398 6.54813 3.23668 4.25187C3.08105 3.805 2.92355 3.625 2.50418 3.625H0.862305C0.393555 3.625 0.299805 3.84188 0.299805 4.08125C0.299805 4.5075 0.856055 6.625 2.89043 9.42563C4.24668 11.3381 6.15605 12.375 7.89543 12.375C8.93855 12.375 9.0673 12.145 9.0673 11.7481V10.3025C9.0673 9.84188 9.16605 9.75 9.49668 9.75C9.74043 9.75 10.1573 9.87 11.1311 10.7919C12.2436 11.885 12.4267 12.375 13.0529 12.375H14.6936C15.1623 12.375 15.3973 12.145 15.2623 11.69C15.1136 11.2375 14.5823 10.5806 13.8779 9.80125C13.4954 9.3575 12.9217 8.87938 12.7473 8.64C12.5042 8.33313 12.5736 8.19625 12.7473 7.92313C12.7473 7.92313 14.7473 5.15688 14.9554 4.2175" fill="white"/>
</g>
<defs>
<clipPath id="clip0_1884_6851">
<rect width="15" height="15" fill="white" transform="translate(0.299805 0.5)"/>
</clipPath>
</defs>
</svg>
