<svg width="18" height="18" viewBox="0 0 18 18" fill="none" xmlns="http://www.w3.org/2000/svg">
<path fill-rule="evenodd" clip-rule="evenodd" d="M5.45078 3.96339C7.81345 3.77783 10.187 3.77783 12.5497 3.96339L14.1364 4.08805C14.5661 4.12156 14.9723 4.29794 15.2901 4.58909C15.608 4.88024 15.8192 5.2694 15.8902 5.69456C16.2564 7.88331 16.2564 10.1167 15.8902 12.3047C15.8192 12.7298 15.6081 13.1188 15.2904 13.41C14.9727 13.7011 14.5667 13.8776 14.1371 13.9112L12.5504 14.0352C10.1875 14.2208 7.81368 14.2208 5.45078 14.0352L3.86411 13.9112C3.43438 13.8777 3.02822 13.7013 2.71037 13.4102C2.39252 13.119 2.18126 12.7299 2.11028 12.3047C1.74449 10.1165 1.74449 7.88276 2.11028 5.69456C2.18123 5.26951 2.39238 4.88043 2.71009 4.58929C3.0278 4.29816 3.43379 4.12171 3.8634 4.08805L5.45078 3.96339ZM7.58357 10.7492V7.25006C7.58363 7.2125 7.59364 7.17564 7.61258 7.14321C7.63151 7.11078 7.65871 7.08395 7.69139 7.06545C7.72407 7.04695 7.76107 7.03744 7.79862 7.03789C7.83617 7.03834 7.87293 7.04874 7.90515 7.06801L10.8214 8.8176C10.8527 8.8365 10.8787 8.86319 10.8967 8.89509C10.9148 8.92699 10.9242 8.963 10.9242 8.99964C10.9242 9.03628 10.9148 9.07229 10.8967 9.10419C10.8787 9.13609 10.8527 9.16278 10.8214 9.18168L7.90515 10.9313C7.87293 10.9505 7.83617 10.9609 7.79862 10.9614C7.76107 10.9618 7.72407 10.9523 7.69139 10.9338C7.65871 10.9153 7.63151 10.8885 7.61258 10.8561C7.59364 10.8236 7.58363 10.7868 7.58357 10.7492Z" fill="white"/>
</svg>
