<svg width="202" height="62" viewBox="0 0 202 62" fill="none" xmlns="http://www.w3.org/2000/svg">
<g clip-path="url(#clip0_1495_2603)">
<path d="M113.027 0C125.985 0 137.102 8.07786 141.656 19.4902C146.212 8.08049 157.328 0.000175558 170.284 0C187.284 0 201.118 13.9028 201.118 31C201.118 48.0972 187.291 62 170.284 62C157.327 61.9998 146.211 53.919 141.656 42.5088C137.102 53.9216 125.985 62 113.027 62H31.7148C14.708 61.9998 0.881836 48.0902 0.881836 31C0.881837 13.9098 14.708 0.000178882 31.7148 0H113.027ZM31.7148 4.43066C17.1455 4.43084 5.29199 16.3473 5.29199 31C5.29199 45.6527 17.1455 57.5692 31.7148 57.5693H113.027C127.597 57.5693 139.451 45.6528 139.451 31C139.451 16.3472 127.597 4.43066 113.027 4.43066H31.7148ZM170.284 4.43066C155.715 4.43089 143.861 16.3474 143.861 31C143.861 45.6526 155.715 57.5691 170.284 57.5693C184.854 57.5693 196.708 45.6528 196.708 31C196.708 16.3472 184.854 4.43066 170.284 4.43066ZM187.916 31.9795L187.799 32.0967L187.916 32.2148L174.874 45.333H167.347L178.053 34.6182H152.618V29.3262H177.803L167.347 18.8613H174.874L187.916 31.9795ZM109.416 16.7852C121.59 16.7852 126.812 21.8409 126.812 30.959C126.812 40.0769 121.555 45.209 109.416 45.209C97.2775 45.2089 92.0206 40.1532 92.0205 30.959C92.0205 21.7993 97.2426 16.7852 109.416 16.7852ZM79.4863 17.1807C85.7708 17.1808 90.0829 21.1667 90.083 27.3262C90.083 31.8262 87.7915 35.1462 84.0762 36.6045L89.1738 44.8193H80.792L76.3262 37.4375H64.8613V44.8193H57.7432V17.1807H79.4863ZM44.5693 17.1807C50.854 17.1807 55.1669 21.1666 55.167 27.3262H55.1738C55.1738 33.4859 50.8609 37.4307 44.5762 37.4307H29.9443V44.8125H22.8262V17.1807H44.5693ZM109.423 22.7432C101.993 22.7433 99.1387 25.3133 99.1387 30.959C99.1387 36.6046 102.027 39.2499 109.423 39.25C116.819 39.25 119.701 36.6047 119.701 30.959C119.701 25.3548 116.853 22.7432 109.423 22.7432ZM64.8613 31.4727H77.5137C79.6526 31.4727 82.9717 31.472 82.9717 27.3262C82.9716 23.1805 79.6525 23.1387 77.5137 23.1387H64.8613V31.4727ZM29.9443 31.4648H42.5967C44.6687 31.4648 47.8491 31.4653 48.0459 27.6963L48.0557 27.3262C48.0556 23.1389 44.7355 23.1387 42.5967 23.1387H29.9443V31.4648Z" fill="white"/>
</g>
<defs>
<clipPath id="clip0_1495_2603">
<rect width="200.236" height="62" fill="white" transform="translate(0.881836)"/>
</clipPath>
</defs>
</svg>
