<svg width="70" height="22" viewBox="0 0 70 22" fill="none" xmlns="http://www.w3.org/2000/svg">
<path d="M39.2051 0C43.7366 0.000133056 47.6209 2.86986 49.2119 6.92188C50.8031 2.87042 54.6892 0 59.2207 0C65.1635 0.000195294 69.999 4.93336 69.999 11C69.999 17.0666 65.166 21.9998 59.2207 22C54.6889 22 50.8029 19.1291 49.2119 15.0771C47.6211 19.1296 43.7369 21.9999 39.2051 22H10.7793C4.83388 22 0 17.0643 0 11C1.18982e-07 4.93571 4.83388 0 10.7793 0H39.2051ZM10.7793 1.57227C5.686 1.57227 1.54199 5.80063 1.54199 11C1.54199 16.1994 5.686 20.4277 10.7793 20.4277H39.2051C44.2922 20.4276 48.4316 16.2093 48.4414 11.0186V10.9805C48.431 5.79015 44.2918 1.57244 39.2051 1.57227H10.7793ZM59.2207 1.57227C54.1274 1.57227 49.9834 5.80063 49.9834 11C49.9834 16.1994 54.1274 20.4277 59.2207 20.4277C64.3138 20.4275 68.458 16.1993 68.458 11C68.458 5.80075 64.3138 1.57246 59.2207 1.57227ZM65.3838 11.3477L65.3418 11.3896L65.3838 11.4316L60.8252 16.0859H58.1934L61.9365 12.2842H53.0449V10.4062H61.8486L58.1934 6.69238H60.8252L65.3838 11.3477ZM37.9424 5.95605C42.1981 5.95605 44.0244 7.74991 44.0244 10.9854C44.0244 14.2207 42.1859 16.042 37.9424 16.042C33.6991 16.0419 31.8614 14.2477 31.8613 10.9854C31.8613 7.7352 33.6869 5.95614 37.9424 5.95605ZM27.4785 6.09668C29.6753 6.09688 31.1826 7.51171 31.1826 9.69727C31.1825 11.2938 30.3816 12.4718 29.083 12.9893L30.8643 15.9043H27.9346L26.373 13.2842H22.3652V15.9043H19.877V6.09668H27.4785ZM15.2734 6.09668C17.4702 6.09688 18.9775 7.51171 18.9775 9.69727H18.9805C18.9803 11.8827 17.4723 13.2822 15.2754 13.2822H10.1602V15.9014H7.67188V6.09668H15.2734ZM37.9453 8.07031C35.3477 8.07031 34.3496 8.98199 34.3496 10.9854C34.3497 12.9886 35.3599 13.9277 37.9453 13.9277C40.5306 13.9277 41.538 12.9886 41.5381 10.9854C41.5381 8.99683 40.5428 8.07036 37.9453 8.07031ZM22.3652 11.168H26.7891C27.5367 11.168 28.6961 11.1676 28.6963 9.69727C28.6963 8.22648 27.5368 8.21094 26.7891 8.21094H22.3652V11.168ZM10.1602 11.165H14.584C15.285 11.165 16.3484 11.1652 16.4785 9.95312L16.4912 9.69727C16.4912 8.21169 15.3317 8.21094 14.584 8.21094H10.1602V11.165Z" fill="#191919"/>
</svg>
