<svg width="353" height="28" viewBox="0 0 353 28" fill="none" xmlns="http://www.w3.org/2000/svg">
<g clip-path="url(#clip0_1884_6881)">
<path d="M24.1952 21.1068C23.6804 21.5928 23.0185 21.858 22.2978 21.858H8.2955V16.4966H22.239C23.3127 16.4966 24.2687 17.1005 24.7247 18.0431C24.9012 18.4114 25.0042 18.809 25.0042 19.2215C25.0042 19.9285 24.71 20.5913 24.2099 21.0921L24.1952 21.1068ZM8.2955 6.18622H21.1947C22.2096 6.18622 23.1362 6.77538 23.5775 7.68859C23.754 8.04208 23.8422 8.42504 23.8422 8.82273C23.8422 9.50026 23.5627 10.1483 23.0774 10.6344C22.5773 11.1057 21.9448 11.3709 21.2535 11.3709H8.2955V6.18622ZM30.3874 14.3756C29.8432 13.9926 29.2402 13.6981 28.6224 13.4918C29.652 12.9469 30.5345 12.1515 31.167 11.1941C31.9906 9.98632 32.4319 8.54287 32.4319 7.06996V6.65755C32.4319 5.68543 32.2113 4.71331 31.77 3.82956C31.2258 2.69542 30.358 1.75276 29.2843 1.07522C28.1665 0.353498 26.8721 0 25.5337 0H0V27.9853H26.0632C30.0491 27.9853 33.2261 24.7743 33.5791 20.9448C33.8292 18.2641 32.6231 15.9074 30.3874 14.3756Z" fill="white"/>
<path fill-rule="evenodd" clip-rule="evenodd" d="M36.7266 27.9853H45.2721V6.58393H57.9066C58.5831 6.58393 59.2303 6.7754 59.8039 7.14363C60.3629 7.49713 60.8188 8.01265 61.113 8.60181C61.3483 9.07314 61.466 9.58866 61.466 10.1189C61.466 11.0174 61.0983 11.9011 60.4364 12.5345C59.7892 13.1678 58.892 13.5361 57.9801 13.5361H49.5816L60.5394 28.0148H70.4234L63.3928 18.706L63.481 18.6765C65.3784 17.9842 67.0257 16.747 68.1877 15.1268C69.3349 13.5213 69.9674 11.6065 69.9674 9.63285C69.9674 8.23358 69.6585 6.81959 69.0261 5.55289C68.2318 3.93269 66.9816 2.56288 65.4519 1.59076C63.8634 0.544998 61.9955 0.02948 60.0981 0.02948H36.7266V28.0148V27.9853Z" fill="white"/>
<path d="M102.237 18.0284C102.237 18.9269 101.884 19.7959 101.222 20.4292C100.575 21.0479 99.7075 21.4161 98.7956 21.4161H85.308C84.6314 21.4161 83.9843 21.2246 83.4254 20.8711C82.8812 20.5176 82.4252 20.0168 82.131 19.4424C81.8957 18.9858 81.7927 18.4703 81.7927 17.9548V9.98632C81.7927 9.08785 82.1604 8.23356 82.8076 7.58548C83.4548 6.95213 84.3226 6.59863 85.2345 6.59863H98.722C99.3986 6.59863 100.046 6.79011 100.605 7.14361C101.149 7.49711 101.605 7.9979 101.899 8.57233C102.134 9.04366 102.237 9.54445 102.237 10.06V18.0284ZM110.709 7.08469C110.224 4.89006 108.474 3.18148 106.562 2.0768C104.076 0.64808 101.134 0 98.2808 0H85.8228C82.9694 0 79.9983 0.633351 77.5273 2.0768C75.5858 3.19621 73.8208 4.91952 73.3354 7.17307C73.2472 7.57075 73.2178 7.95371 73.2178 8.35139V19.737C73.2178 20.1347 73.2619 20.5176 73.3354 20.9153C73.8208 23.1099 75.5711 24.8185 77.4832 25.9379C79.9542 27.3666 82.9106 28 85.7493 28H98.2072C101.061 28 104.032 27.3666 106.503 25.9379C108.444 24.8185 110.224 23.0952 110.695 20.8417C110.783 20.444 110.827 20.061 110.827 19.6633V8.26302C110.827 7.86533 110.783 7.48238 110.709 7.08469Z" fill="white"/>
<path fill-rule="evenodd" clip-rule="evenodd" d="M114.49 27.9853H122.947V10.0452L142.347 27.9853H149.76V0H141.318V17.3656L122.447 0H114.49V27.9853Z" fill="white"/>
<path fill-rule="evenodd" clip-rule="evenodd" d="M153.408 27.9853H186.649V21.5634H166.307L186.649 5.53814V0H153.982V6.42188H173.72L153.408 22.4471V27.9853Z" fill="white"/>
<path fill-rule="evenodd" clip-rule="evenodd" d="M190.591 27.9853H221.346V21.5192H199.033V16.9826H219.404V11.0026H199.033V6.46607H221.096V0H190.591V27.9853Z" fill="white"/>
<path fill-rule="evenodd" clip-rule="evenodd" d="M261.131 27.9853H273.678V11.5476H265.191V21.4014H253.071C252.395 21.4014 251.747 21.2099 251.189 20.8564C250.63 20.5029 250.188 20.0021 249.894 19.4277C249.659 18.9563 249.556 18.4408 249.556 17.9253V9.95687C249.556 9.05839 249.909 8.2041 250.571 7.55602C251.218 6.92267 252.086 6.56917 252.998 6.56917H273.692V0H253.586C250.718 0 247.762 0.633351 245.291 2.0768C243.349 3.19621 241.569 4.91952 241.099 7.17307C241.01 7.57075 240.981 7.95371 240.981 8.35139V19.737C240.981 20.1347 241.025 20.5176 241.099 20.9006C241.584 23.0952 243.334 24.8038 245.246 25.9232C247.717 27.3519 250.674 27.9853 253.512 27.9853H261.146H261.131Z" fill="white"/>
<path fill-rule="evenodd" clip-rule="evenodd" d="M289.092 27.9853H298.211V19.6781L312.758 0H303.521L293.725 13.4329L283.915 0H274.59L289.092 19.6339V27.9853Z" fill="white"/>
<path fill-rule="evenodd" clip-rule="evenodd" d="M313.699 27.9853H314.126H321.612H322.054V10.2073L331.437 22.727H335.026L344.513 10.0747V27.9853H344.94H352.573H353V0H343.91L333.379 14.0516L322.833 0H313.699V27.9853Z" fill="white"/>
</g>
<defs>
<clipPath id="clip0_1884_6881">
<rect width="353" height="28" fill="white"/>
</clipPath>
</defs>
</svg>
