<svg width="15" height="15" viewBox="0 0 15 15" fill="none" xmlns="http://www.w3.org/2000/svg">
<path d="M3.68053 3.96984H13.0972L11.9201 9.07053H4.85761M11.9201 10.64H5.24997L3.28817 2.40039H2.11108" stroke="#191919" stroke-width="0.9" stroke-linecap="round" stroke-linejoin="round"/>
<path d="M11.136 12.9941C11.5694 12.9941 11.9208 12.6428 11.9208 12.2094C11.9208 11.776 11.5694 11.4247 11.136 11.4247C10.7027 11.4247 10.3513 11.776 10.3513 12.2094C10.3513 12.6428 10.7027 12.9941 11.136 12.9941Z" stroke="#191919" stroke-width="0.9" stroke-linecap="round" stroke-linejoin="round"/>
<path d="M6.03448 12.9941C6.46787 12.9941 6.8192 12.6428 6.8192 12.2094C6.8192 11.776 6.46787 11.4247 6.03448 11.4247C5.60109 11.4247 5.24976 11.776 5.24976 12.2094C5.24976 12.6428 5.60109 12.9941 6.03448 12.9941Z" stroke="#191919" stroke-width="0.9" stroke-linecap="round" stroke-linejoin="round"/>
</svg>
