<svg width="15" height="16" viewBox="0 0 15 16" fill="none" xmlns="http://www.w3.org/2000/svg">
<path d="M7.5 4.36719C7.05963 4.36719 6.62914 4.49777 6.26299 4.74243C5.89683 4.98709 5.61145 5.33483 5.44292 5.74168C5.2744 6.14853 5.23031 6.59622 5.31622 7.02813C5.40213 7.46004 5.61419 7.85678 5.92558 8.16817C6.23697 8.47956 6.63371 8.69162 7.06562 8.77753C7.49753 8.86344 7.94522 8.81935 8.35207 8.65083C8.75892 8.4823 9.10666 8.19692 9.35132 7.83076C9.59598 7.46461 9.72656 7.03412 9.72656 6.59375C9.72656 6.00323 9.49198 5.43689 9.07442 5.01933C8.65686 4.60177 8.09052 4.36719 7.5 4.36719ZM7.5 8.11719C7.19869 8.11719 6.90415 8.02784 6.65362 7.86044C6.4031 7.69304 6.20783 7.45512 6.09253 7.17674C5.97722 6.89837 5.94705 6.59206 6.00583 6.29654C6.06462 6.00102 6.20971 5.72957 6.42277 5.51652C6.63582 5.30346 6.90727 5.15837 7.20279 5.09958C7.49831 5.0408 7.80462 5.07097 8.08299 5.18628C8.36137 5.30158 8.59929 5.49685 8.76669 5.74737C8.93409 5.9979 9.02344 6.29244 9.02344 6.59375C9.02344 6.99779 8.86293 7.38528 8.57723 7.67098C8.29153 7.95668 7.90404 8.11719 7.5 8.11719ZM7.5 1.55469C6.16403 1.55624 4.88323 2.08764 3.93856 3.03231C2.99389 3.97698 2.46249 5.25778 2.46094 6.59375C2.46094 8.40488 3.30117 10.3285 4.89082 12.1566C5.6083 12.9858 6.41581 13.7326 7.29844 14.3832C7.35752 14.4245 7.42789 14.4467 7.5 14.4467C7.57211 14.4467 7.64248 14.4245 7.70156 14.3832C8.58419 13.7326 9.3917 12.9858 10.1092 12.1566C11.6988 10.3285 12.5391 8.40664 12.5391 6.59375C12.5375 5.25778 12.0061 3.97698 11.0614 3.03231C10.1168 2.08764 8.83597 1.55624 7.5 1.55469ZM7.5 13.6549C6.62109 12.9764 3.16406 10.0871 3.16406 6.59375C3.16406 5.44379 3.62088 4.34092 4.43403 3.52778C5.24717 2.71463 6.35004 2.25781 7.5 2.25781C8.64996 2.25781 9.75282 2.71463 10.566 3.52778C11.3791 4.34092 11.8359 5.44379 11.8359 6.59375C11.8359 10.0871 8.37891 12.9764 7.5 13.6549Z" fill="white"/>
</svg>
