<svg width="15" height="15" viewBox="0 0 15 15" fill="none" xmlns="http://www.w3.org/2000/svg">
<path d="M5.97656 6.47461H13.0078C13.0723 6.47461 13.125 6.42188 13.125 6.35742V5.53711C13.125 5.47266 13.0723 5.41992 13.0078 5.41992H5.97656C5.91211 5.41992 5.85938 5.47266 5.85938 5.53711V6.35742C5.85938 6.42188 5.91211 6.47461 5.97656 6.47461ZM5.85938 9.46289C5.85938 9.52734 5.91211 9.58008 5.97656 9.58008H13.0078C13.0723 9.58008 13.125 9.52734 13.125 9.46289V8.64258C13.125 8.57812 13.0723 8.52539 13.0078 8.52539H5.97656C5.91211 8.52539 5.85938 8.57812 5.85938 8.64258V9.46289ZM13.2422 2.34375H1.75781C1.69336 2.34375 1.64062 2.39648 1.64062 2.46094V3.28125C1.64062 3.3457 1.69336 3.39844 1.75781 3.39844H13.2422C13.3066 3.39844 13.3594 3.3457 13.3594 3.28125V2.46094C13.3594 2.39648 13.3066 2.34375 13.2422 2.34375ZM13.2422 11.6016H1.75781C1.69336 11.6016 1.64062 11.6543 1.64062 11.7188V12.5391C1.64062 12.6035 1.69336 12.6562 1.75781 12.6562H13.2422C13.3066 12.6562 13.3594 12.6035 13.3594 12.5391V11.7188C13.3594 11.6543 13.3066 11.6016 13.2422 11.6016ZM2.08594 9.40576L4.37549 7.60254C4.3909 7.59042 4.40337 7.57496 4.41194 7.55733C4.42051 7.53969 4.42496 7.52034 4.42496 7.50073C4.42496 7.48112 4.42051 7.46177 4.41194 7.44414C4.40337 7.4265 4.3909 7.41104 4.37549 7.39893L2.08594 5.59424C2.00098 5.52686 1.875 5.58691 1.875 5.69531V9.30322C1.87499 9.32769 1.88187 9.35166 1.89484 9.37241C1.90782 9.39315 1.92637 9.40982 1.94837 9.42052C1.97038 9.43121 1.99495 9.4355 2.01927 9.43289C2.0436 9.43028 2.0667 9.42088 2.08594 9.40576Z" fill="#191919"/>
</svg>
