<svg width="16" height="17" viewBox="0 0 16 17" fill="none" xmlns="http://www.w3.org/2000/svg">
<path d="M7.18004 12.7C6.18717 12.7 5.21661 12.4056 4.39107 11.854C3.56554 11.3024 2.92211 10.5184 2.54216 9.60108C2.16221 8.68379 2.0628 7.67444 2.25649 6.70065C2.45019 5.72687 2.9283 4.83239 3.63036 4.13033C4.33242 3.42827 5.2269 2.95016 6.20068 2.75646C7.17447 2.56277 8.18382 2.66218 9.10111 3.04213C10.0184 3.42208 10.8024 4.06551 11.354 4.89104C11.9056 5.71658 12.2 6.68714 12.2 7.68001C12.2 8.33924 12.0702 8.99202 11.8179 9.60108C11.5656 10.2101 11.1959 10.7635 10.7297 11.2297C10.2636 11.6958 9.71016 12.0656 9.10111 12.3179C8.49205 12.5702 7.83927 12.7 7.18004 12.7ZM7.18004 3.66667C6.38891 3.66667 5.61555 3.90127 4.95776 4.34079C4.29996 4.78032 3.78727 5.40503 3.48452 6.13594C3.18177 6.86684 3.10255 7.67111 3.2569 8.44703C3.41124 9.22296 3.7922 9.93569 4.35161 10.4951C4.91102 11.0545 5.62375 11.4355 6.39967 11.5898C7.1756 11.7442 7.97987 11.6649 8.71077 11.3622C9.44167 11.0594 10.0664 10.5468 10.5059 9.88895C10.9454 9.23116 11.18 8.4578 11.18 7.66667C11.18 6.60581 10.7586 5.58839 10.0085 4.83825C9.25832 4.0881 8.2409 3.66667 7.18004 3.66667Z" fill="#191919"/>
<path d="M13.3327 14.3336C13.267 14.3339 13.2019 14.3211 13.1412 14.2959C13.0805 14.2708 13.0255 14.2337 12.9793 14.187L10.226 11.4336C10.1377 11.3389 10.0896 11.2135 10.0919 11.084C10.0942 10.9544 10.1466 10.8308 10.2382 10.7392C10.3299 10.6476 10.4534 10.5951 10.583 10.5929C10.7125 10.5906 10.8379 10.6386 10.9327 10.727L13.686 13.4803C13.7796 13.5741 13.8322 13.7011 13.8322 13.8336C13.8322 13.9661 13.7796 14.0932 13.686 14.187C13.6398 14.2337 13.5848 14.2708 13.5241 14.2959C13.4634 14.3211 13.3984 14.3339 13.3327 14.3336Z" fill="#191919"/>
</svg>
