<svg width="20" height="21" viewBox="0 0 20 21" fill="none" xmlns="http://www.w3.org/2000/svg">
<path d="M13.7196 7.87121L12.8113 13.687C12.7988 13.7672 12.7665 13.843 12.7175 13.9077C12.6684 13.9723 12.6041 14.0238 12.5302 14.0574C12.4563 14.091 12.3753 14.1058 12.2943 14.1003C12.2134 14.0949 12.135 14.0694 12.0663 14.0262L9.02464 12.1204C8.96142 12.0808 8.90806 12.0274 8.86863 11.9641C8.82919 11.9008 8.80473 11.8293 8.79709 11.7551C8.78946 11.681 8.79886 11.606 8.82457 11.536C8.85028 11.466 8.89163 11.4028 8.94547 11.3512L11.4705 8.93121C11.4988 8.90454 11.4655 8.86038 11.4321 8.88038L7.77214 11.0704C7.5546 11.2012 7.29626 11.2466 7.04714 11.1979L5.72214 10.942C5.2438 10.8495 5.17797 10.1929 5.62714 10.007L12.7121 7.07788C12.8328 7.02766 12.9647 7.01054 13.0943 7.02829C13.2238 7.04604 13.3462 7.09801 13.449 7.17884C13.5517 7.25967 13.631 7.36645 13.6787 7.48815C13.7265 7.60985 13.7409 7.74209 13.7205 7.87121" fill="white"/>
<path fill-rule="evenodd" clip-rule="evenodd" d="M10.0002 1.92166C5.26271 1.92166 1.42188 5.76249 1.42188 10.5C1.42188 15.2375 5.26271 19.0783 10.0002 19.0783C14.7377 19.0783 18.5785 15.2375 18.5785 10.5C18.5785 5.76249 14.7377 1.92166 10.0002 1.92166ZM2.89187 10.5C2.89187 9.56651 3.07574 8.64218 3.43296 7.77975C3.79019 6.91733 4.31379 6.13371 4.97386 5.47364C5.63393 4.81357 6.41754 4.28998 7.27997 3.93275C8.14239 3.57552 9.06673 3.39166 10.0002 3.39166C10.9337 3.39166 11.858 3.57552 12.7204 3.93275C13.5829 4.28998 14.3665 4.81357 15.0266 5.47364C15.6866 6.13371 16.2102 6.91733 16.5675 7.77975C16.9247 8.64218 17.1085 9.56651 17.1085 10.5C17.1085 12.3852 16.3596 14.1933 15.0266 15.5263C13.6935 16.8594 11.8855 17.6083 10.0002 17.6083C8.11496 17.6083 6.30693 16.8594 4.97386 15.5263C3.64079 14.1933 2.89187 12.3852 2.89187 10.5Z" fill="white"/>
</svg>
