<svg width="20" height="21" viewBox="0 0 20 21" fill="none" xmlns="http://www.w3.org/2000/svg">
<path d="M15.8747 4.59204C15.1106 3.82046 14.2005 3.20868 13.1976 2.79234C12.1947 2.376 11.1189 2.16344 10.033 2.16704C5.48301 2.16704 1.77467 5.87537 1.77467 10.4254C1.77467 11.8837 2.15801 13.3004 2.87467 14.5504L1.70801 18.8337L6.08301 17.6837C7.29134 18.342 8.64967 18.692 10.033 18.692C14.583 18.692 18.2913 14.9837 18.2913 10.4337C18.2913 8.22537 17.433 6.15037 15.8747 4.59204ZM10.033 17.292C8.79967 17.292 7.59134 16.9587 6.53301 16.3337L6.28301 16.1837L3.68301 16.867L4.37467 14.3337L4.20801 14.0754C3.52263 12.9813 3.15878 11.7164 3.15801 10.4254C3.15801 6.64204 6.24134 3.5587 10.0247 3.5587C11.858 3.5587 13.583 4.27537 14.8747 5.57537C15.5144 6.21192 16.0213 6.96916 16.366 7.80314C16.7108 8.63713 16.8865 9.53128 16.883 10.4337C16.8997 14.217 13.8163 17.292 10.033 17.292ZM13.7997 12.1587C13.5913 12.0587 12.5747 11.5587 12.3913 11.4837C12.1997 11.417 12.0663 11.3837 11.9247 11.5837C11.783 11.792 11.3913 12.2587 11.2747 12.392C11.158 12.5337 11.033 12.5504 10.8247 12.442C10.6163 12.342 9.94967 12.117 9.16634 11.417C8.54967 10.867 8.14134 10.192 8.01634 9.9837C7.89967 9.77537 7.99967 9.66704 8.10801 9.5587C8.19967 9.46704 8.31634 9.31704 8.41634 9.20037C8.51634 9.0837 8.55801 8.99204 8.62467 8.8587C8.69134 8.71704 8.65801 8.60037 8.60801 8.50037C8.55801 8.40037 8.14134 7.3837 7.97467 6.96704C7.80801 6.56704 7.63301 6.61704 7.50801 6.6087H7.10801C6.96634 6.6087 6.74967 6.6587 6.55801 6.86704C6.37467 7.07537 5.84134 7.57537 5.84134 8.59204C5.84134 9.6087 6.58301 10.592 6.68301 10.7254C6.78301 10.867 8.14134 12.9504 10.208 13.842C10.6997 14.0587 11.083 14.1837 11.383 14.2754C11.8747 14.4337 12.3247 14.4087 12.683 14.3587C13.083 14.3004 13.908 13.8587 14.0747 13.3754C14.2497 12.892 14.2497 12.4837 14.1913 12.392C14.133 12.3004 14.008 12.2587 13.7997 12.1587Z" fill="white"/>
</svg>
